<?xml version="1.0" encoding="iso-8859-1"?>
<!-- Generator: Adobe Illustrator 19.0.0, SVG Export Plug-In . SVG Version: 6.00 Build 0)  -->
<svg version="1.1" id="Layer_1" xmlns="http://www.w3.org/2000/svg" xmlns:xlink="http://www.w3.org/1999/xlink" x="0px" y="0px"
	 viewBox="0 0 512 512" style="enable-background:new 0 0 512 512;" xml:space="preserve">
<g>
	<path style="fill:#D36259;" d="M438.857,114.287c0,20.114-16.457,36.571-36.571,36.571s-36.571-16.457-36.571-36.571
		c0,20.114-16.457,36.571-36.571,36.571c-20.114,0-36.571-16.457-36.571-36.571c0,20.114-16.457,36.571-36.571,36.571
		c-20.114,0-36.571-16.457-36.571-36.571c0,20.114-16.457,36.571-36.571,36.571s-36.571-16.457-36.571-36.571
		c0,20.114-16.457,36.571-36.571,36.571s-36.571-16.457-36.571-36.571c0,20.114-16.457,36.571-36.571,36.571
		c-3.173,0-6.199-0.539-9.143-1.307v56.165h457.143v-56.165c-2.944,0.768-5.97,1.307-9.143,1.307
		C455.314,150.859,438.857,134.401,438.857,114.287"/>
	<polygon style="fill:#F0785A;" points="27.429,498.284 484.571,498.284 484.571,205.713 27.429,205.713 	"/>
	<path style="fill:#ED7161;" d="M0,114.287c0,21.349,18.542,38.583,40.32,36.379c18.981-1.92,32.823-19.035,32.823-38.107V13.716
		h-46.72C11.831,13.716,0,25.547,0,40.139V114.287z"/>
	<path style="fill:#F3D55B;" d="M73.143,114.287c0,20.114,16.457,36.571,36.571,36.571s36.571-16.457,36.571-36.571V13.716H73.143
		V114.287z"/>
	<path style="fill:#ED7161;" d="M146.286,114.287c0,20.114,16.457,36.571,36.571,36.571s36.571-16.457,36.571-36.571V13.716h-73.143
		V114.287z"/>
	<path style="fill:#F3D55B;" d="M219.429,114.287c0,20.114,16.457,36.571,36.571,36.571c20.114,0,36.571-16.457,36.571-36.571
		V13.716h-73.143V114.287z"/>
	<path style="fill:#ED7161;" d="M292.571,114.287c0,20.114,16.457,36.571,36.571,36.571c20.114,0,36.571-16.457,36.571-36.571
		V13.716h-73.143V114.287z"/>
	<path style="fill:#F3D55B;" d="M365.714,114.287c0,20.114,16.457,36.571,36.571,36.571s36.571-16.457,36.571-36.571V13.716h-73.143
		V114.287z"/>
	<path style="fill:#ED7161;" d="M438.857,114.287c0,21.349,18.542,38.583,40.32,36.379c18.981-1.92,32.823-19.035,32.823-38.107
		V40.139c0-14.592-11.831-26.423-26.423-26.423h-46.72V114.287z"/>
	<polygon style="fill:#B0D3F0;" points="73.143,498.284 201.143,498.284 201.143,242.284 73.143,242.284 	"/>
	<polygon style="fill:#FFFFFF;" points="173.714,397.713 201.143,397.713 201.143,379.427 173.714,379.427 	"/>
	<polygon style="fill:#B0D3F0;" points="246.857,443.427 448,443.427 448,242.284 246.857,242.284 	"/>
	<g>
		<path style="fill:#D36259;" d="M292.571,443.43c0-45.486-20.443-82.286-45.714-82.286c30.318,0,54.857-53.157,54.857-118.857
			h-54.857V443.43H292.571z"/>
		<path style="fill:#D36259;" d="M402.286,443.43c0-45.486,20.443-82.286,45.714-82.286c-30.318,0-54.857-53.157-54.857-118.857H448
			V443.43H402.286z"/>
	</g>
	<polygon style="fill:#FFFFFF;" points="109.714,333.713 164.571,333.713 164.571,278.856 109.714,278.856 	"/>
	<path style="fill:#AD602B;" d="M374.857,388.573H320c-5.047,0-9.143,4.087-9.143,9.143c0,5.056,4.096,9.143,9.143,9.143h18.286
		v36.571h18.286v-36.571h18.286c5.047,0,9.143-4.087,9.143-9.143C384,392.66,379.904,388.573,374.857,388.573"/>
</g>
<g>
</g>
<g>
</g>
<g>
</g>
<g>
</g>
<g>
</g>
<g>
</g>
<g>
</g>
<g>
</g>
<g>
</g>
<g>
</g>
<g>
</g>
<g>
</g>
<g>
</g>
<g>
</g>
<g>
</g>
</svg>
