<?xml version="1.0" encoding="iso-8859-1"?>
<!-- Generator: Adobe Illustrator 19.0.0, SVG Export Plug-In . SVG Version: 6.00 Build 0)  -->
<svg version="1.1" id="Layer_1" xmlns="http://www.w3.org/2000/svg" xmlns:xlink="http://www.w3.org/1999/xlink" x="0px" y="0px"
	 viewBox="0 0 512 512" style="enable-background:new 0 0 512 512;" xml:space="preserve">
<g transform="translate(0 -1)">
	<g>
		<path style="fill:#2F3744;" d="M203.034,239.346c-4.873,0-8.828-3.946-8.828-8.828V98.105c0-4.882,3.955-8.828,8.828-8.828
			c4.873,0,8.828,3.946,8.828,8.828v132.414C211.862,235.4,207.907,239.346,203.034,239.346"/>
		<path style="fill:#2F3744;" d="M459.034,239.346c-4.873,0-8.828-3.946-8.828-8.828V98.105c0-4.882,3.955-8.828,8.828-8.828
			s8.828,3.946,8.828,8.828v132.414C467.862,235.4,463.907,239.346,459.034,239.346"/>
		<path style="fill:#2F3744;" d="M26.483,274.656c-4.873,0-8.828-3.946-8.828-8.828c0-97.351,88.029-176.552,185.379-176.552
			c4.873,0,8.828,3.946,8.828,8.828s-3.955,8.828-8.828,8.828c-87.614,0-167.724,71.283-167.724,158.897
			C35.31,270.711,31.356,274.656,26.483,274.656"/>
		<path style="fill:#2F3744;" d="M17.655,301.139L17.655,301.139C7.901,301.139,0,293.239,0,283.484V36.312
			c0-9.754,7.901-17.655,17.655-17.655S35.31,26.557,35.31,36.312v247.172C35.31,293.239,27.41,301.139,17.655,301.139"/>
	</g>
	<path style="fill:#464F5D;" d="M494.345,62.794H35.31v35.31h459.034c9.754,0,17.655-7.901,17.655-17.655
		S504.099,62.794,494.345,62.794"/>
	<polygon style="fill:#E57E25;" points="158.897,495.344 494.345,495.344 494.345,230.516 158.897,230.516 	"/>
	<polygon style="fill:#FFFFFF;" points="194.207,460.033 459.034,460.033 459.034,265.826 194.207,265.826 	"/>
	<g>
		<path style="fill:#E57E25;" d="M397.241,415.898H291.31c-4.873,0-8.828-3.946-8.828-8.828s3.955-8.828,8.828-8.828h105.931
			c4.873,0,8.828,3.946,8.828,8.828S402.114,415.898,397.241,415.898"/>
		<path style="fill:#E57E25;" d="M300.138,327.622v26.483c0,24.338,19.8,44.138,44.138,44.138c24.338,0,44.138-19.8,44.138-44.138
			v-26.483H300.138z M344.276,415.898c-34.074,0-61.793-27.727-61.793-61.793v-35.31c0-4.882,3.955-8.828,8.828-8.828h105.931
			c4.873,0,8.828,3.946,8.828,8.828v35.31C406.069,388.17,378.35,415.898,344.276,415.898L344.276,415.898z"/>
		<path style="fill:#E57E25;" d="M291.315,371.76c-29.21,0-52.966-23.755-52.966-52.966c0-4.882,3.946-8.828,8.828-8.828h44.138
			c4.873,0,8.828,3.946,8.828,8.828c0,4.882-3.955,8.828-8.828,8.828h-34.198c3.928,15.219,17.77,26.483,34.198,26.483
			c4.873,0,8.828,3.946,8.828,8.828C300.142,367.814,296.188,371.76,291.315,371.76"/>
	</g>
</g>
<g>
</g>
<g>
</g>
<g>
</g>
<g>
</g>
<g>
</g>
<g>
</g>
<g>
</g>
<g>
</g>
<g>
</g>
<g>
</g>
<g>
</g>
<g>
</g>
<g>
</g>
<g>
</g>
<g>
</g>
</svg>
