<?xml version="1.0" encoding="iso-8859-1"?>
<!-- Generator: Adobe Illustrator 19.0.0, SVG Export Plug-In . SVG Version: 6.00 Build 0)  -->
<svg version="1.1" id="Capa_1" xmlns="http://www.w3.org/2000/svg" xmlns:xlink="http://www.w3.org/1999/xlink" x="0px" y="0px"
	 viewBox="0 0 512 512" style="enable-background:new 0 0 512 512;" xml:space="preserve">
<path style="fill:#91ADC1;" d="M437.713,512H74.286c-4.552,0-8.241-3.69-8.241-8.241V185.113h379.908v318.646
	C445.954,508.31,442.264,512,437.713,512z"/>
<path style="fill:#FFCA85;" d="M149.171,406.183v-62.347c0-4.654-3.773-8.427-8.428-8.427h-26.15c-4.654,0-8.427,3.773-8.427,8.427
	v62.347L149.171,406.183L149.171,406.183z"/>
<path style="fill:#FFCC66;" d="M301.674,381.681v29.718h-92.545v-29.718c0-9.256,2.718-17.884,7.409-25.119
	c8.245-12.728,22.564-21.148,38.869-21.148c12.775,0,24.341,5.179,32.714,13.553c2.218,2.206,4.204,4.645,5.934,7.281
	C298.876,363.541,301.674,372.286,301.674,381.681z"/>
<rect x="209.13" y="390.02" style="fill:#FF9900;" width="92.55" height="21.38"/>
<g>
	<circle style="fill:#FFCA85;" cx="305.82" cy="315.75" r="14.217"/>
	<circle style="fill:#FFCA85;" cx="206.199" cy="315.75" r="14.217"/>
</g>
<circle style="fill:#FFE2B6;" cx="255.149" cy="318.68" r="44.02"/>
<path style="fill:#FF5987;" d="M257.566,344.041h-7.551c-4.267,0-7.726-3.459-7.726-7.726v-30.097c0-4.267,3.459-7.726,7.726-7.726
	s7.726,3.459,7.726,7.726v22.372c4.186,0.093,7.551,3.516,7.551,7.724C265.294,340.581,261.835,344.041,257.566,344.041z"/>
<path style="fill:#5C6887;" d="M302.076,294.34c0-25.918-21.01-46.928-46.928-46.928s-46.928,21.01-46.928,46.928
	c0,0,3.496,20.526,40.825,21.774v-17.503c0,0,17.417,15.693,52.825,15.538L302.076,294.34z"/>
<path style="fill:#D0DCE7;" d="M76.677,254.112L76.677,254.112c-24.758,0-44.828-20.07-44.828-44.828v-68.385h89.657v68.385
	C121.507,234.042,101.435,254.112,76.677,254.112z"/>
<rect x="31.867" y="140.9" style="fill:#91ADC1;" width="89.66" height="19.973"/>
<path style="fill:#FF5987;" d="M166.352,254.112L166.352,254.112c-24.758,0-44.828-20.07-44.828-44.828v-68.385h89.657v68.385
	C211.179,234.042,191.109,254.112,166.352,254.112z"/>
<rect x="121.519" y="140.9" style="fill:#E83A70;" width="89.66" height="19.973"/>
<path style="fill:#D0DCE7;" d="M256.008,254.112L256.008,254.112c-24.758,0-44.828-20.07-44.828-44.828v-68.385h89.657v68.385
	C300.837,234.042,280.766,254.112,256.008,254.112z"/>
<rect x="211.179" y="140.9" style="fill:#91ADC1;" width="89.66" height="19.973"/>
<path style="fill:#FF5987;" d="M345.665,254.112L345.665,254.112c-24.758,0-44.828-20.07-44.828-44.828v-68.385h89.657v68.385
	C390.493,234.042,370.423,254.112,345.665,254.112z"/>
<rect x="300.84" y="140.9" style="fill:#E83A70;" width="89.66" height="19.973"/>
<path style="fill:#D0DCE7;" d="M435.322,254.112L435.322,254.112c-24.758,0-44.828-20.07-44.828-44.828v-68.385h89.657v68.385
	C480.15,234.042,460.079,254.112,435.322,254.112z"/>
<rect x="390.49" y="140.9" style="fill:#91ADC1;" width="89.66" height="19.973"/>
<path style="fill:#D0DCE7;" d="M419.296,0H92.703c-3.391,0-6.435,2.077-7.673,5.234L31.849,140.899h448.3L426.969,5.234
	C425.73,2.077,422.687,0,419.296,0z"/>
<polygon style="fill:#FF5987;" points="357.353,0 154.646,0 121.507,140.899 390.493,140.899 "/>
<polygon style="fill:#D0DCE7;" points="289.788,0 222.212,0 211.162,140.899 300.837,140.899 "/>
<path style="fill:#5C6887;" d="M348.646,413.909c-4.267,0-7.726-3.459-7.726-7.726v-33.376c0-4.267,3.459-7.726,7.726-7.726h97.308
	c4.267,0,7.726,3.459,7.726,7.726s-3.459,7.726-7.726,7.726h-89.581v25.65C356.372,410.45,352.913,413.909,348.646,413.909z"/>
<path style="fill:#FF5987;" d="M445.954,406.183H66.045v97.575c0,4.552,3.69,8.241,8.241,8.241h363.426
	c4.552,0,8.241-3.69,8.241-8.241L445.954,406.183L445.954,406.183z"/>
<g>
	<path style="fill:#FFCA85;" d="M393.687,450.651H118.313c-4.267,0-7.726-3.459-7.726-7.726s3.459-7.726,7.726-7.726h275.373
		c4.267,0,7.726,3.459,7.726,7.726S397.954,450.651,393.687,450.651z"/>
	<path style="fill:#FFCA85;" d="M320.363,477.921H191.636c-4.267,0-7.726-3.459-7.726-7.726s3.459-7.726,7.726-7.726h128.726
		c4.267,0,7.726,3.459,7.726,7.726C328.09,474.462,324.63,477.921,320.363,477.921z"/>
</g>
<g>
</g>
<g>
</g>
<g>
</g>
<g>
</g>
<g>
</g>
<g>
</g>
<g>
</g>
<g>
</g>
<g>
</g>
<g>
</g>
<g>
</g>
<g>
</g>
<g>
</g>
<g>
</g>
<g>
</g>
</svg>
