<?xml version="1.0" encoding="iso-8859-1"?>
<!-- Generator: Adobe Illustrator 19.0.0, SVG Export Plug-In . SVG Version: 6.00 Build 0)  -->
<svg version="1.1" id="Capa_1" xmlns="http://www.w3.org/2000/svg" xmlns:xlink="http://www.w3.org/1999/xlink" x="0px" y="0px"
	 viewBox="0 0 511.999 511.999" style="enable-background:new 0 0 511.999 511.999;" xml:space="preserve">
<path style="fill:#FFB64D;" d="M452.757,132.049c-24.929,53.094-61.907,99.88-109.899,139.068
	c-37.525,30.643-81.772,56.63-131.516,77.26c-83.703,34.7-154.878,42.455-157.864,42.765c-0.165,0.016-0.331,0.032-0.486,0.048
	c-21.292,2.014-40.72-10.088-48.902-28.713c-1.968-4.476-3.286-9.329-3.823-14.455c-2.782-26.576,16.468-50.369,43.022-53.208
	c0.311-0.031,15.88-1.788,40.263-7.279c24.392-5.482,57.579-14.698,93.115-29.649c90.951-38.248,154.34-94.431,188.41-167.007
	c11.363-24.205,40.206-34.623,64.421-23.251c12.998,6.106,22.027,17.247,25.825,30.013
	C458.613,108.64,458.014,120.842,452.757,132.049z"/>
<path style="fill:#63CEC1;" d="M394.614,165.028l-313,169.649l-27.322-50.403l-4.148-7.653c-1.692-3.124-1.962-6.64-1.023-9.792
	c0.949-3.152,3.087-5.952,6.203-7.644c6.24-3.385,14.051-1.06,17.436,5.18l4.78,8.825c1.172,2.157,3.097,3.627,5.282,4.278
	c2.176,0.642,4.603,0.456,6.761-0.716c4.315-2.334,5.905-7.719,3.571-12.024l-5.97-11.02c-3.106-5.728-3.59-12.163-1.869-17.957
	c1.72-5.775,5.645-10.918,11.373-14.024c11.448-6.203,25.769-1.944,31.971,9.504l1.302,2.399c2.455,4.538,6.519,7.644,11.103,9.011
	c4.585,1.358,9.681,0.967,14.219-1.497c9.067-4.91,12.433-16.246,7.523-25.322l-8.741-13.996c-4.873-8.993-5.645-19.11-2.948-28.205
	c2.706-9.086,8.881-17.157,17.883-22.03c17.985-9.755,40.48-3.069,50.235,14.916l11.066,18.301
	c3.627,6.696,11.996,9.179,18.683,5.552l4.854-2.632c6.686-3.627,9.179-11.987,5.542-18.682l-2.613-4.827
	c-3.432-6.333-3.971-13.438-2.065-19.817c1.897-6.389,6.231-12.052,12.545-15.474c12.638-6.854,28.447-2.167,35.291,10.471
	l2.622,4.836c1.814,3.348,4.808,5.635,8.193,6.649c3.385,0.995,7.142,0.716,10.49-1.098c6.686-3.627,9.178-11.987,5.552-18.692
	l-6.119-11.28c-2.706-5.003-3.134-10.62-1.637-15.679c1.497-5.04,4.919-9.523,9.923-12.229c9.997-5.422,22.495-1.711,27.917,8.286
	l1.785,3.301L394.614,165.028z"/>
<path style="fill:#5BBAAC;" d="M394.614,165.028l-313,169.649l-27.322-50.403c2.799-0.586,5.673-0.939,8.602-1.042
	c0.167-0.009,23.146-1.041,56.41-8.165c19.501-4.176,38.527-9.569,56.578-16.051c57.312-20.57,103.066-50.784,135.985-89.795
	c11.857-14.052,22.226-29.46,30.818-45.8c4.399-8.36,10.862-15.167,18.58-19.929L394.614,165.028z"/>
<path style="fill:#FC819C;" d="M419.238,163.661c-14.023,26.68-31.423,51.212-52.021,73.354
	c-10.118,10.88-21.007,21.193-32.641,30.902c-5.068,4.231-10.285,8.341-15.632,12.34c-33.571,25.081-72.619,45.586-116.066,60.948
	c-73.317,25.936-134.293,28.373-136.85,28.456c-0.121,0.009-0.251,0.009-0.372,0.019c-16.878,0.418-31.311-11.243-34.891-27.182
	c-0.465-2.083-0.753-4.231-0.828-6.444c-0.205-5.747,0.995-11.215,3.292-16.088c5.384-11.419,16.795-19.51,30.279-20.003
	c0.911-0.037,24.857-1.153,59.302-8.528c17.427-3.729,37.542-9.058,58.726-16.664c60.298-21.64,108.227-53.397,143.127-94.752
	c12.666-15.009,23.63-31.293,32.836-48.813c8.965-17.046,30.047-23.602,47.102-14.637c3.506,1.841,6.575,4.194,9.141,6.928
	c0.26,0.279,0.521,0.558,0.772,0.846C423.814,134.879,426.176,150.474,419.238,163.661z"/>
<path style="fill:#F27293;" d="M419.238,163.661c-14.023,26.68-31.423,51.212-52.021,73.354
	c-10.118,10.88-21.007,21.193-32.641,30.902c-5.068,4.231-10.285,8.341-15.632,12.34c-33.571,25.081-72.619,45.586-116.066,60.948
	c-73.317,25.936-134.293,28.373-136.85,28.456c-0.121,0.009-0.251,0.009-0.372,0.019c-16.878,0.418-31.311-11.243-34.891-27.182
	c9.988-7.021,21.975-11.419,35.022-12.154c0.577-0.037,64.045-4.175,137.473-30.781c93.664-33.943,160.266-87.024,197.947-157.765
	c3.525-6.621,8.035-12.489,13.308-17.455C423.814,134.879,426.176,150.474,419.238,163.661z"/>
<path style="fill:#FFF4CA;" d="M334.577,267.917c-1.804-1.135-3.432-2.632-4.789-4.548c-6.947-9.802-13.466-15.753-19.724-18.915
	c-14.981-7.57-28.493,0.846-42.973,10.853c-8.063,5.58-8.732,12.47-7.049,19.65c3.497,14.786,17.027,30.772-3.469,38.862
	c-33.952,13.4-42.024,1.395-60.214-11.81c-1.153-0.837-2.343-1.683-3.589-2.52c-20.849-14.089-24.178,2.939-44.014,11.001
	c-19.836,8.053-25.945-17.734-25.945-17.734v-1.321c17.427-3.729,37.542-9.058,58.726-16.664
	c60.298-21.64,108.227-53.397,143.127-94.752c6.556,8.295,15.735,20.012,24.439,31.488c5.57,7.356,10.955,14.619,15.325,20.812
	c1.116,1.59,2.046,3.153,2.79,4.696C378.498,260.161,349.93,277.504,334.577,267.917z"/>
<g>
	<path style="fill:#FFEB96;" d="M260.042,274.956c3.497,14.786,17.027,30.772-3.469,38.862c-33.952,13.4-42.024,1.395-60.214-11.81
		c2.288-0.791,4.594-1.609,6.9-2.446C223.449,292.244,242.382,284.042,260.042,274.956z"/>
	<path style="fill:#FFEB96;" d="M367.218,237.015c-10.118,10.88-21.007,21.193-32.641,30.902c-1.804-1.135-3.432-2.632-4.789-4.548
		c-6.947-9.802-13.466-15.753-19.724-18.915c14.172-10.22,27.182-21.203,39.039-32.948c5.57,7.356,10.955,14.619,15.325,20.812
		C365.544,233.909,366.474,235.471,367.218,237.015z"/>
</g>
<path style="fill:#FFC988;" d="M71.811,448.926c-27.905,1.23-51.65-20.246-53.159-48.201c-1.515-28.09,19.999-52.096,48.073-53.667
	l0,0c0.65-0.037,65.901-4.096,142.235-31.757c97.682-35.396,167.333-91.124,207.018-165.634
	c13.24-24.858,44.125-34.279,68.987-21.037c24.858,13.241,34.278,44.127,21.037,68.987
	c-29.035,54.515-70.406,101.76-122.962,140.425c-41.092,30.23-89.007,55.216-142.415,74.264
	c-89.872,32.052-165.141,36.426-168.301,36.597C72.155,448.909,71.981,448.918,71.811,448.926z"/>
<path style="fill:#FFB64D;" d="M506.007,197.616c-29.042,54.509-70.412,101.763-122.97,140.426
	c-41.087,30.224-89.004,55.211-142.407,74.262c-89.879,32.052-165.148,36.422-168.308,36.6l-0.506,0.022
	c-25.4,1.119-47.361-16.578-52.231-40.848c9.821,12.521,25.329,20.259,42.392,19.507c0.175-0.008,0.34-0.025,0.515-0.032
	c3.16-0.169,78.43-4.538,168.298-36.59c53.413-19.05,101.32-44.038,142.416-74.271c52.558-38.663,93.929-85.908,122.961-140.416
	c5.789-10.87,7.247-22.894,4.97-34.09C513.2,157.58,515.782,179.241,506.007,197.616z"/>
<g>
</g>
<g>
</g>
<g>
</g>
<g>
</g>
<g>
</g>
<g>
</g>
<g>
</g>
<g>
</g>
<g>
</g>
<g>
</g>
<g>
</g>
<g>
</g>
<g>
</g>
<g>
</g>
<g>
</g>
</svg>
