<?xml version="1.0" encoding="iso-8859-1"?>
<!-- Generator: Adobe Illustrator 19.0.0, SVG Export Plug-In . SVG Version: 6.00 Build 0)  -->
<svg version="1.1" id="Layer_1" xmlns="http://www.w3.org/2000/svg" xmlns:xlink="http://www.w3.org/1999/xlink" x="0px" y="0px"
	 viewBox="0 0 512 512" style="enable-background:new 0 0 512 512;" xml:space="preserve">
<g transform="translate(0 -1)">
	<g>
		<path style="fill:#2F3744;" d="M17.965,297.421L17.965,297.421C8.039,297.421,0,289.382,0,279.456V27.947
			C0,18.022,8.039,9.982,17.965,9.982S35.93,18.022,35.93,27.947v251.509C35.93,289.382,27.891,297.421,17.965,297.421"/>
		<path style="fill:#2F3744;" d="M377.263,99.807c0,24.801-20.112,44.912-44.912,44.912c-24.801,0-44.912-20.112-44.912-44.912
			s20.112-44.912,44.912-44.912C357.151,54.895,377.263,75.006,377.263,99.807"/>
	</g>
	<path style="fill:#464F5D;" d="M332.351,54.895H35.93v35.93h252.416C292.505,70.327,310.622,54.895,332.351,54.895"/>
	<path style="fill:#805333;" d="M512,324.368c0,99.22-80.429,179.649-179.649,179.649s-179.649-80.429-179.649-179.649
		s80.429-179.649,179.649-179.649S512,225.148,512,324.368"/>
	<g>
		<path style="fill:#FFFFFF;" d="M287.439,351.316c-4.958,0-8.982,4.024-8.982,8.982v53.895c0,4.958,4.024,8.982,8.982,8.982
			s8.982-4.024,8.982-8.982v-53.895C296.421,355.34,292.397,351.316,287.439,351.316 M287.439,441.14
			c-14.857,0-26.947-12.09-26.947-26.947v-53.895c0-14.857,12.09-26.947,26.947-26.947s26.947,12.09,26.947,26.947v53.895
			C314.386,429.05,302.296,441.14,287.439,441.14"/>
		<path style="fill:#FFFFFF;" d="M395.228,351.316c-4.958,0-8.982,4.024-8.982,8.982v53.895c0,4.958,4.024,8.982,8.982,8.982
			c4.958,0,8.982-4.024,8.982-8.982v-53.895C404.211,355.34,400.186,351.316,395.228,351.316 M395.228,441.14
			c-14.857,0-26.947-12.09-26.947-26.947v-53.895c0-14.857,12.09-26.947,26.947-26.947c14.857,0,26.947,12.09,26.947,26.947v53.895
			C422.175,429.05,410.085,441.14,395.228,441.14"/>
		<path style="fill:#FFFFFF;" d="M287.439,351.316c-4.967,0-8.982-4.015-8.982-8.982V225.561c0-4.967,4.015-8.982,8.982-8.982
			c4.967,0,8.982,4.015,8.982,8.982v116.772C296.421,347.301,292.406,351.316,287.439,351.316"/>
		<path style="fill:#FFFFFF;" d="M287.439,306.404c-24.765,0-44.912-20.148-44.912-44.912v-35.93c0-4.967,4.015-8.982,8.982-8.982
			s8.982,4.015,8.982,8.982v35.93c0,14.857,12.09,26.947,26.947,26.947s26.947-12.09,26.947-26.947v-35.93
			c0-4.967,4.015-8.982,8.982-8.982c4.967,0,8.982,4.015,8.982,8.982v35.93C332.351,286.256,312.203,306.404,287.439,306.404"/>
		<path style="fill:#FFFFFF;" d="M395.228,333.351c3.099,0,6.135,0.557,8.982,1.581v-73.441c0-11.713-7.509-21.702-17.965-25.411
			v98.852C389.093,333.908,392.129,333.351,395.228,333.351 M413.193,360.298h-2.506c-3.198,0-6.144-1.689-7.761-4.446
			c-3.315-5.686-12.081-5.686-15.396,0c-1.617,2.758-4.563,4.446-7.761,4.446h-2.506c-4.967,0-8.982-4.015-8.982-8.982V225.561
			c0-4.967,4.015-8.982,8.982-8.982c24.765,0,44.912,20.148,44.912,44.912v89.825C422.175,356.283,418.16,360.298,413.193,360.298"
			/>
	</g>
</g>
<g>
</g>
<g>
</g>
<g>
</g>
<g>
</g>
<g>
</g>
<g>
</g>
<g>
</g>
<g>
</g>
<g>
</g>
<g>
</g>
<g>
</g>
<g>
</g>
<g>
</g>
<g>
</g>
<g>
</g>
</svg>
