<?xml version="1.0" encoding="iso-8859-1"?>
<!-- Generator: Adobe Illustrator 19.0.0, SVG Export Plug-In . SVG Version: 6.00 Build 0)  -->
<svg version="1.1" id="Capa_1" xmlns="http://www.w3.org/2000/svg" xmlns:xlink="http://www.w3.org/1999/xlink" x="0px" y="0px"
	 viewBox="0 0 512 512" style="enable-background:new 0 0 512 512;" xml:space="preserve">
<path style="fill:#554431;" d="M469.419,307.985c-32.516,58.468-94.598,95.924-163.173,95.924H205.797
	c-68.575,0-130.656-37.456-163.173-95.924H469.419z"/>
<path style="fill:#6A563D;" d="M469.419,307.985c-32.516,58.468-94.598,95.924-163.173,95.924h-54.885
	c-68.575,0-130.656-37.456-163.173-95.924H469.419z"/>
<path style="fill:#A78966;" d="M512,236.842c0,9.144-1.895,18.06-5.499,26.666C482.083,321.82,379.211,365.603,256,365.603
	c-121.595,0-223.38-42.634-249.507-99.807C2.247,256.497,0,246.804,0,236.842c0-71.112,114.615-128.751,256-128.751
	S512,165.73,512,236.842z"/>
<path style="fill:#806749;" d="M499.75,235.807c0,4.815-0.621,9.569-1.833,14.239c-0.859,3.262-1.988,6.493-3.407,9.672
	c-23.248,52.285-121.191,91.554-238.509,91.554c-115.775,0-212.693-38.233-237.567-89.503c-1.812-3.738-3.231-7.539-4.266-11.412
	c-1.263-4.764-1.916-9.62-1.916-14.55c0-63.78,109.127-115.465,243.749-115.465S499.75,172.027,499.75,235.807z"/>
<path style="fill:#CC7400;" d="M497.917,250.046c-0.859,3.262-1.988,6.493-3.407,9.672
	c-23.248,52.285-121.191,91.554-238.509,91.554c-115.775,0-212.693-38.233-237.567-89.503c-1.812-3.738-3.231-7.539-4.266-11.412
	c39.548-46.465,132.924-79.117,241.823-79.117C366.184,171.24,459.333,202.897,497.917,250.046z"/>
<path style="fill:#AA6100;" d="M486.599,273.304c-32.869,45.357-123.687,77.967-230.598,77.967
	c-115.775,0-212.693-38.233-237.567-89.503c-1.812-3.738-3.231-7.539-4.266-11.412c6.462-7.601,14.374-14.819,23.549-21.591
	c0.994,3.345,2.268,6.638,3.842,9.879c24.874,51.27,121.792,89.503,237.567,89.503C366.806,328.147,443.665,306.214,486.599,273.304
	z"/>
<path style="fill:#EBE5DD;" d="M296.501,244.293c0,39.89-53.2,72.227-118.824,72.227S58.852,284.183,58.852,244.293
	s53.2-98.632,118.824-98.632S296.501,204.403,296.501,244.293z"/>
<g>
	<path style="fill:#CD2A00;" d="M378.818,222.552c0,12.437-14.249,22.513-31.833,22.513c-17.594,0-31.843-10.076-31.843-22.513
		c0-3.459,1.098-6.741,3.076-9.662c5.105-7.611,16.062-12.862,28.768-12.862c12.696,0,23.652,5.25,28.757,12.862
		C377.72,215.81,378.818,219.093,378.818,222.552z"/>
	<path style="fill:#CD2A00;" d="M470.465,264.357c0,12.51-17.387,22.648-38.833,22.648s-38.833-10.138-38.833-22.648
		c0-3.459,1.326-6.731,3.707-9.662c6.213-7.673,19.603-12.986,35.126-12.986s28.913,5.312,35.126,12.986
		C469.139,257.626,470.465,260.898,470.465,264.357z"/>
	<path style="fill:#CD2A00;" d="M371.051,302.538c0,11.298-15.689,20.452-35.054,20.452c-19.365,0-35.064-9.154-35.064-20.452
		c0-3.49,1.502-6.783,4.163-9.662c5.903-6.42,17.532-10.791,30.901-10.791c13.369,0,24.988,4.37,30.901,10.791
		C369.55,295.755,371.051,299.048,371.051,302.538z"/>
</g>
<g>
	<path style="fill:#FF3501;" d="M375.742,212.89c-5.116,7.601-16.072,12.851-28.757,12.851c-12.696,0-23.652-5.25-28.768-12.851
		c5.105-7.611,16.062-12.862,28.768-12.862C359.681,200.028,370.637,205.278,375.742,212.89z"/>
	<path style="fill:#FF3501;" d="M466.758,254.695c-6.224,7.673-19.613,12.986-35.126,12.986c-15.513,0-28.902-5.312-35.126-12.986
		c6.213-7.673,19.603-12.986,35.126-12.986S460.544,247.022,466.758,254.695z"/>
	<path style="fill:#FF3501;" d="M366.899,292.876c-5.913,6.42-17.532,10.78-30.901,10.78c-13.369,0-24.988-4.36-30.901-10.78
		c5.903-6.42,17.532-10.791,30.901-10.791C349.367,282.086,360.986,286.456,366.899,292.876z"/>
</g>
<g>
	<path style="fill:#D9CCBC;" d="M150.086,192.506c0.851,1.493,2.86,1.888,4.069,0.793c13.155-11.911,8.036-24.205,4.9-29.33
		c-0.857-1.401-2.755-1.772-3.952-0.775C141.94,174.156,146.953,187.008,150.086,192.506z"/>
	<path style="fill:#D9CCBC;" d="M116.222,233.218c0.851,1.493,2.86,1.888,4.069,0.793c13.155-11.911,8.036-24.205,4.9-29.33
		c-0.857-1.401-2.755-1.772-3.952-0.775C108.075,214.867,113.088,227.719,116.222,233.218z"/>
	<path style="fill:#D9CCBC;" d="M82.121,260.385c0.851,1.493,2.86,1.888,4.069,0.793c13.155-11.911,8.036-24.205,4.9-29.33
		c-0.857-1.401-2.755-1.772-3.952-0.775C73.974,242.034,78.987,254.887,82.121,260.385z"/>
	<path style="fill:#D9CCBC;" d="M190.405,232.865c1.202,1.228,3.246,1.099,4.137-0.267c9.697-14.861,1.624-25.453-2.711-29.613
		c-1.185-1.137-3.114-1.014-4.019,0.255C177.863,217.185,185.977,228.343,190.405,232.865z"/>
	<path style="fill:#D9CCBC;" d="M233.898,271.18c1.202,1.228,3.246,1.099,4.137-0.267c9.697-14.861,1.624-25.453-2.711-29.613
		c-1.185-1.137-3.114-1.014-4.019,0.255C221.356,255.501,229.47,266.659,233.898,271.18z"/>
	<path style="fill:#D9CCBC;" d="M231.827,205.94c1.202,1.228,3.246,1.099,4.137-0.267c9.697-14.861,1.624-25.453-2.711-29.613
		c-1.185-1.137-3.114-1.014-4.019,0.255C219.285,190.261,227.399,201.419,231.827,205.94z"/>
	<path style="fill:#D9CCBC;" d="M155.153,293.221c1.126,1.299,3.174,1.292,4.145-0.017c10.575-14.25,3.154-25.309-0.922-29.723
		c-1.114-1.206-3.048-1.2-4.027,0.011C143.58,276.814,151.007,288.44,155.153,293.221z"/>
</g>
<g>
</g>
<g>
</g>
<g>
</g>
<g>
</g>
<g>
</g>
<g>
</g>
<g>
</g>
<g>
</g>
<g>
</g>
<g>
</g>
<g>
</g>
<g>
</g>
<g>
</g>
<g>
</g>
<g>
</g>
</svg>
