<?xml version="1.0" encoding="iso-8859-1"?>
<!-- Generator: Adobe Illustrator 19.0.0, SVG Export Plug-In . SVG Version: 6.00 Build 0)  -->
<svg version="1.1" id="Layer_1" xmlns="http://www.w3.org/2000/svg" xmlns:xlink="http://www.w3.org/1999/xlink" x="0px" y="0px"
	 viewBox="0 0 512 512" style="enable-background:new 0 0 512 512;" xml:space="preserve">
<polygon style="fill:#FEC377;" points="386.904,136.077 380.242,139.949 380.263,132.243 255.165,60.018 130.883,132.242 
	130.861,139.873 124.285,136.077 0,208.303 0,303.699 125.098,375.924 131.739,372.057 131.739,379.758 256.835,451.982 
	381.12,379.756 381.12,372.121 387.717,375.921 512,303.697 512,208.301 "/>
<g style="enable-background:new    ;">
	<polygon style="fill:#FFA834;" points="380.263,132.243 379.993,227.639 255.711,299.863 255.981,204.468 	"/>
	<polygon style="fill:#FFB657;" points="255.981,204.468 255.711,299.863 130.613,227.638 130.883,132.242 	"/>
	<polygon style="fill:#FEC377;" points="380.263,132.243 255.981,204.468 130.883,132.242 255.165,60.018 	"/>
</g>
<g style="enable-background:new    ;">
	<polygon style="fill:#FFA834;" points="249.384,208.302 249.113,303.698 125.098,375.924 125.098,280.528 	"/>
	<polygon style="fill:#FFB657;" points="125.098,280.528 125.098,375.924 0,303.699 0,208.303 	"/>
	<polygon style="fill:#FEC377;" points="249.384,208.302 125.098,280.528 0,208.303 124.285,136.077 	"/>
	<polygon style="fill:#FFA834;" points="512,208.301 512,303.697 387.717,375.921 387.717,280.525 	"/>
	<polygon style="fill:#FFB657;" points="387.717,280.525 387.717,375.921 262.352,303.698 262.622,208.302 	"/>
	<polygon style="fill:#FEC377;" points="512,208.301 387.717,280.525 262.622,208.302 386.904,136.077 	"/>
	<polygon style="fill:#FFA834;" points="381.12,284.36 381.12,379.756 256.835,451.982 256.835,356.586 	"/>
	<polygon style="fill:#FFB657;" points="256.835,356.586 256.835,451.982 131.739,379.758 131.739,284.363 	"/>
	<polygon style="fill:#FEC377;" points="381.12,284.36 256.835,356.586 131.739,284.363 256.024,212.136 	"/>
</g>
<g>
	<path style="fill:#FF9911;" d="M345.142,328.406c-2.596,1.498-4.695,5.134-4.686,8.118c0.008,2.983,2.12,4.187,4.717,2.688
		c2.598-1.499,4.696-5.135,4.687-8.117C349.852,328.109,347.74,326.906,345.142,328.406z"/>
	<path style="fill:#FF9911;" d="M359.536,337.147c-1.985,1.146-3.59,3.926-3.584,6.209c0.006,2.281,1.622,3.202,3.607,2.055
		c1.986-1.147,3.591-3.927,3.585-6.208C363.138,336.92,361.522,335.999,359.536,337.147z"/>
	<path style="fill:#FF9911;" d="M365.997,320.792c-1.58,0.912-2.857,3.124-2.852,4.94c0.005,1.815,1.29,2.547,2.87,1.635
		c1.581-0.912,2.858-3.124,2.853-4.94C368.863,320.611,367.578,319.879,365.997,320.792z"/>
	<path style="fill:#FF9911;" d="M399.08,344.362c-2.596,1.498-4.695,5.134-4.686,8.118c0.008,2.983,2.12,4.187,4.717,2.688
		c2.598-1.499,4.696-5.135,4.687-8.117C403.789,344.065,401.677,342.861,399.08,344.362z"/>
	<path style="fill:#FF9911;" d="M405.983,321.549c-1.985,1.146-3.59,3.926-3.584,6.209c0.006,2.281,1.622,3.202,3.607,2.055
		c1.986-1.147,3.591-3.927,3.585-6.208C409.585,321.323,407.971,320.402,405.983,321.549z"/>
	<path style="fill:#FF9911;" d="M421.026,330.7c-1.58,0.912-2.857,3.124-2.852,4.94c0.005,1.815,1.29,2.547,2.87,1.635
		c1.581-0.912,2.858-3.124,2.853-4.94C423.892,330.519,422.607,329.786,421.026,330.7z"/>
</g>
<g>
	<path style="fill:#FFA834;" d="M149.761,318.152c-2.596-1.498-4.695-5.134-4.686-8.118c0.008-2.983,2.12-4.187,4.717-2.688
		c2.598,1.499,4.696,5.135,4.687,8.117C154.471,318.448,152.358,319.652,149.761,318.152z"/>
	<path style="fill:#FFA834;" d="M156.666,340.965c-1.985-1.146-3.59-3.926-3.584-6.209c0.006-2.281,1.622-3.202,3.607-2.055
		c1.986,1.147,3.591,3.927,3.585,6.208C160.267,341.191,158.652,342.111,156.666,340.965z"/>
	<path style="fill:#FFA834;" d="M171.708,331.815c-1.58-0.912-2.857-3.124-2.852-4.94c0.005-1.815,1.29-2.547,2.87-1.635
		c1.581,0.913,2.858,3.124,2.853,4.94C174.574,331.994,173.289,332.727,171.708,331.815z"/>
	<path style="fill:#FFA834;" d="M103.336,354.217c-2.596-1.498-4.695-5.134-4.686-8.118c0.008-2.983,2.12-4.187,4.717-2.688
		c2.598,1.499,4.696,5.135,4.687,8.117C108.047,354.513,105.934,355.717,103.336,354.217z"/>
	<path style="fill:#FFA834;" d="M81.108,331.122c-1.985-1.146-3.59-3.926-3.584-6.209c0.006-2.281,1.622-3.202,3.607-2.055
		c1.986,1.147,3.591,3.927,3.585,6.208C84.71,331.349,83.095,332.269,81.108,331.122z"/>
	<path style="fill:#FFA834;" d="M103.343,333.077c-1.58-0.912-2.857-3.124-2.852-4.94c0.005-1.815,1.29-2.547,2.87-1.635
		c1.581,0.913,2.858,3.124,2.853,4.94C106.209,333.257,104.924,333.989,103.343,333.077z"/>
</g>
<g>
</g>
<g>
</g>
<g>
</g>
<g>
</g>
<g>
</g>
<g>
</g>
<g>
</g>
<g>
</g>
<g>
</g>
<g>
</g>
<g>
</g>
<g>
</g>
<g>
</g>
<g>
</g>
<g>
</g>
</svg>
